<?xml version="1.0" encoding="iso-8859-1"?>
<!-- Uploaded to: SVG Repo, www.svgrepo.com, Generator: SVG Repo Mixer Tools -->
<svg fill="#FFFFFF" height="800px" width="800px" version="1.1" id="Layer_1" xmlns="http://www.w3.org/2000/svg" xmlns:xlink="http://www.w3.org/1999/xlink" 
	 viewBox="0 0 511.36 511.36" xml:space="preserve">
<g>
	<g>
		<path d="M255.68,0.016C114.688,0.016,0,114.688,0,255.68s114.688,255.664,255.68,255.664S511.36,396.672,511.36,255.68
			S396.672,0.016,255.68,0.016z M255.68,479.344C132.336,479.344,32,379.008,32,255.68S132.336,32.016,255.68,32.016
			c123.328,0,223.696,100.336,223.696,223.664S379.024,479.344,255.68,479.344z"/>
	</g>
</g>
<g>
	<g>
		<path d="M255.68,161.984c-51.648,0-93.68,42.032-93.68,93.696s42.016,93.696,93.68,93.696s93.696-42.032,93.696-93.696
			S307.344,161.984,255.68,161.984z M255.68,317.376c-34.016,0-61.68-27.68-61.68-61.696s27.664-61.696,61.68-61.696
			c34,0,61.696,27.68,61.696,61.696C317.376,289.696,289.696,317.376,255.68,317.376z"/>
	</g>
</g>
<g>
	<g>
		<path d="M255.68,111.488c-79.52,0-144.192,64.688-144.192,144.192c0,8.848,7.168,16,16,16c8.832,0,16-7.152,16-16
			c0-61.856,50.336-112.192,112.192-112.192c8.832,0,16-7.152,16-16C271.68,118.64,264.512,111.488,255.68,111.488z"/>
	</g>
</g>
<g>
	<g>
		<path d="M383.872,239.68c-8.832,0-16,7.152-16,16c0,61.856-50.32,112.192-112.192,112.192c-8.832,0-16,7.152-16,16
			c0,8.848,7.168,16,16,16c79.504,0,144.192-64.688,144.192-144.192C399.872,246.832,392.704,239.68,383.872,239.68z"/>
	</g>
</g>
<g>
	<g>
		<path d="M255.68,47.856c-114.608,0-207.84,93.232-207.84,207.824c0,8.848,7.168,16,16,16c8.832,0,16-7.152,16-16
			c0-96.96,78.88-175.824,175.84-175.824c8.832,0,16-7.152,16-16C271.68,55.008,264.512,47.856,255.68,47.856z"/>
	</g>
</g>
<g>
	<g>
		<path d="M447.536,239.68c-8.832,0-16,7.152-16,16c0,96.944-78.88,175.824-175.856,175.824c-8.832,0-16,7.152-16,16
			c0,8.848,7.168,16,16,16c114.608,0,207.84-93.232,207.856-207.824C463.536,246.832,456.368,239.68,447.536,239.68z"/>
	</g>
</g>
<g>
	<g>
		<circle cx="255.68" cy="255.68" r="31.328"/>
	</g>
</g>
</svg>