<svg xmlns="http://www.w3.org/2000/svg" class="svg-icon" style="width: 1.064453125em; height: 1em;vertical-align: middle;fill: currentColor;overflow: hidden;" viewBox="0 0 1090 1024" version="1.1"><path d="M798.386992 406.269919c-4.995122-6.660163-13.320325-10.822764-24.97561-10.822765-16.650407 0-350.491057 1.665041-407.102439 2.497561l-26.64065-108.227642c-3.330081-14.152846-10.822764-19.980488-16.650407-23.310569-9.157724-4.995122-18.315447-2.497561-21.645528-1.665041L189.814634 283.056911c-7.492683 1.665041-13.320325 8.325203-11.655284 16.650406 1.665041 7.492683 8.325203 13.320325 16.650406 11.655285L308.03252 293.047154h3.330082c0 0.83252 0.83252 1.665041 1.66504 4.162602 4.162602 19.147967 84.084553 343.830894 89.079675 362.978862 0.83252 9.157724 8.325203 20.813008 24.14309 23.310569 4.162602 0.83252 32.468293 0.83252 85.749593 0.83252 74.926829 0 175.661789-0.83252 193.977236-0.83252 2.497561 0.83252 8.325203 1.665041 14.985366-1.665041 7.492683-3.330081 11.655285-10.822764 14.152845-20.813008 2.497561-11.655285 44.123577-159.011382 66.601626-234.770731 1.665041-5.827642 1.665041-13.320325-3.330081-19.980488zM771.746341 424.585366c-9.157724 31.635772-61.606504 213.957724-64.936585 230.60813-101.56748 0.83252-264.741463 1.665041-275.564228 0h-0.83252l-56.611382-228.110569h56.611382c112.390244-1.665041 318.022764-2.497561 341.333333-2.497561zM427.082927 699.317073c-19.147967 4.162602-34.133333 19.147967-38.295935 38.295935-4.162602 17.482927 0.83252 34.965854 13.320325 47.453659 9.990244 9.990244 22.478049 14.985366 35.798374 14.985366 4.162602 0 7.492683-0.83252 11.655285-1.665041 19.147967-4.162602 34.133333-19.147967 38.295935-38.295935 4.162602-17.482927-0.83252-34.965854-13.320326-47.453659-12.487805-11.655285-29.970732-17.482927-47.453658-13.320325z m27.473171 64.936586c-4.995122 4.995122-12.487805 7.492683-19.980488 5.827642-8.325203-1.665041-15.817886-9.157724-17.482927-17.482927-1.665041-7.492683 0.83252-14.985366 5.827642-19.980488 4.162602-4.162602 9.990244-6.660163 15.817886-6.660162h4.162602c8.325203 1.665041 15.817886 9.157724 17.482927 17.482926 1.665041 8.325203-0.83252 15.817886-5.827642 20.813009zM685.996748 699.317073c-19.147967 4.162602-34.133333 19.147967-38.295935 38.295935-4.162602 17.482927 0.83252 34.965854 13.320325 47.453659 9.990244 9.990244 22.478049 14.985366 35.798374 14.985366 4.162602 0 7.492683-0.83252 11.655285-1.665041 19.147967-4.162602 34.133333-19.147967 38.295935-38.295935 4.162602-17.482927-0.83252-34.965854-13.320325-47.453659s-29.970732-17.482927-47.453659-13.320325z m27.473171 64.936586c-4.995122 4.995122-12.487805 7.492683-19.980488 5.827642-8.325203-1.665041-15.817886-9.157724-17.482927-17.482927-1.665041-7.492683 0.83252-14.985366 5.827642-19.980488 4.162602-4.162602 9.990244-6.660163 15.817887-6.660162h4.162601c8.325203 1.665041 15.817886 9.157724 17.482927 17.482926 1.665041 8.325203-0.83252 15.817886-5.827642 20.813009z" fill="#ffffff"/></svg>